<svg width="191" height="94" viewBox="0 0 191 94" fill="none" xmlns="http://www.w3.org/2000/svg">
<g clip-path="url(#clip0_51_292)">
<path fill-rule="evenodd" clip-rule="evenodd" d="M186.072 41.9657H178.63L175.653 64.4888H166.721L169.698 41.9657H162.256L163.745 34.1992H187.562L186.072 41.9657ZM150.347 41.9657L149.603 45.0729H158.534L157.044 52.8395H148.114L147.37 56.7226H158.534L157.044 64.4892H137.694L142.16 34.1995H161.51L160.02 41.9661H150.347L150.347 41.9657ZM131.739 48.956C131.739 48.956 136.205 50.283 136.205 55.1702C136.205 60.0574 131.375 64.4915 126.529 64.4915H109.411L113.877 34.2019H127.274C129.651 34.2019 137.694 33.5577 137.694 40.4161C137.694 47.2746 131.74 48.954 131.74 48.954L131.739 48.956ZM119.831 56.7222H124.297C126.945 56.7222 128.277 52.8391 124.297 52.8391H120.575L119.831 56.7222ZM125.041 41.9657H122.064L121.32 45.8492H125.041C128.212 45.8473 129.109 41.9657 125.041 41.9657Z" fill="black"/>
<path fill-rule="evenodd" clip-rule="evenodd" d="M187.562 39.6338H180.118L177.141 62.1568H168.21L171.187 39.6338H163.744L165.234 31.8672H189.052L187.562 39.6338ZM151.836 39.6338L151.092 42.7409H160.023L158.533 50.5075H149.603L148.858 54.3906H160.022L158.533 62.1572H139.182L143.648 31.8676H162.999L161.509 39.6342H151.835L151.836 39.6338ZM133.229 46.6236C133.229 46.6236 137.694 47.951 137.694 52.8378C137.694 57.7247 132.865 62.1592 128.019 62.1592H110.899L115.364 31.8672H128.761C131.138 31.8672 139.181 31.223 139.181 38.0814C139.181 44.9399 133.228 46.6236 133.228 46.6236H133.229ZM121.319 54.3902H125.785C128.434 54.3902 129.765 50.5071 125.785 50.5071H122.064L121.319 54.3902ZM126.529 39.6338H123.552L122.808 43.5173H126.529C129.7 43.5173 130.597 39.6338 126.529 39.6338Z" fill="url(#paint0_linear_51_292)"/>
<path fill-rule="evenodd" clip-rule="evenodd" d="M59.1796 15.5356C79.9402 15.5356 96.7684 33.1003 96.7684 54.7679C96.7684 76.4355 79.9402 94.0001 59.1796 94.0001C38.4191 94.0001 21.5908 76.4355 21.5908 54.7683C21.5908 33.1011 38.4191 15.5356 59.1796 15.5356Z" fill="#145F50"/>
<path fill-rule="evenodd" clip-rule="evenodd" d="M56.9253 15.5355C76.4409 15.5355 92.2603 32.0626 92.2603 52.4504C92.2603 72.8382 76.4394 89.3649 56.9253 89.3649C37.4112 89.3649 21.5903 72.8378 21.5903 52.4504C21.5903 32.063 37.4097 15.5355 56.9253 15.5355Z" fill="#196946"/>
<path fill-rule="evenodd" clip-rule="evenodd" d="M55.0843 17.886C73.583 17.886 88.5792 33.5364 88.5792 52.8426C88.5792 72.1488 73.583 87.7988 55.0843 87.7988C36.5855 87.7988 21.5894 72.1484 21.5894 52.8426C21.5894 33.5368 36.5851 17.886 55.0843 17.886Z" fill="#237841"/>
<path opacity="0.55" fill-rule="evenodd" clip-rule="evenodd" d="M73.4933 13.7731C74.7328 15.161 75.8839 16.6299 76.9393 18.1707L71.8679 18.8503C71.3549 18.1994 70.8273 17.5563 70.2677 16.9326C66.9549 13.2139 62.9547 10.2134 58.5013 8.10671C54.0479 6.00005 49.231 4.82966 44.3327 4.6641C39.4344 4.49853 34.5533 5.34113 29.9753 7.14253C25.3973 8.94392 21.2145 11.6679 17.672 15.1548C2.67852 29.8373 1.91681 54.4382 15.971 70.1023C19.2838 73.8213 23.2842 76.822 27.7377 78.9288C32.1913 81.0356 37.0085 82.2061 41.907 82.3716C46.8055 82.5371 51.6869 81.6944 56.265 79.8928C60.8432 78.0912 65.026 75.367 68.5686 71.8797C71.1474 69.3525 73.3651 66.4615 75.1554 63.293L79.6454 64.39C77.5351 68.4251 74.8169 72.0903 71.5921 75.2491C67.6287 79.1508 62.9489 82.1987 57.8268 84.2144C52.7047 86.2301 47.2434 87.173 41.7629 86.9879C36.2824 86.8027 30.8929 85.4932 25.9102 83.1361C20.9275 80.779 16.4518 77.4217 12.7454 73.261C-2.98005 55.7357 -2.12666 28.2122 14.6485 11.785C18.6118 7.88365 23.2915 4.83593 28.4134 2.82041C33.5353 0.804883 38.9964 -0.137919 44.4767 0.0472408C49.957 0.232401 55.3463 1.5418 60.3288 3.89872C65.3113 6.25563 69.7869 9.61267 73.4933 13.7731Z" fill="#2DA041"/>
<path opacity="0.65" fill-rule="evenodd" clip-rule="evenodd" d="M42.0525 88.5633C40.2189 88.5594 38.3876 88.4313 36.5704 88.1799L39.5943 83.8106C40.4076 83.8657 41.2258 83.9034 42.0525 83.9034C62.8111 83.9034 79.639 66.3435 79.639 44.6823C79.639 23.021 62.8111 5.46106 42.0525 5.46106C21.2938 5.46106 4.46558 23.021 4.46558 44.6823C4.46552 48.4002 4.97268 52.0997 5.97219 55.6724L2.09718 58.3665C0.706329 53.9463 -0.00136006 49.3286 1.96227e-06 44.6823C1.96227e-06 20.4472 18.8276 0.800781 42.0525 0.800781C65.2773 0.800781 84.1049 20.4472 84.1049 44.6823C84.1049 68.9173 65.2773 88.5633 42.0525 88.5633Z" fill="#2DA041"/>
<path opacity="0.65" fill-rule="evenodd" clip-rule="evenodd" d="M97.2246 58.0564C94.2587 75.3414 83.3961 80.7969 75.4689 80.7969C60.6217 80.7969 54.515 66.4735 59.1697 47.4985C63.3503 30.457 71.3555 26.3823 80.9777 26.3823C91.4636 26.3823 101.177 35.0228 97.2246 58.0564ZM78.5646 42.6254C76.0052 42.6254 73.8458 44.1963 72.8445 50.82C71.8391 57.4708 71.7845 63.7416 77.0981 63.7416C79.9799 63.7416 82.2899 61.6245 83.0115 54.917C83.973 45.9776 82.5813 42.6254 78.5646 42.6254ZM40.9376 60.6038L52.8465 66.0405L51.3567 77.6902L18.6074 72.2535L19.3516 68.3704L38.7033 47.4006C38.7033 47.4006 43.7159 37.7575 40.9361 36.5272C38.1563 35.297 36.4705 41.9659 36.4705 41.9659L23.073 40.4107C23.073 40.4107 28.3648 34.6044 39.4474 27.9823C50.53 21.3602 56.5664 37.3036 56.5664 37.3036C56.5664 37.3036 55.7886 47.1756 50.6121 52.8368C45.4357 58.4981 40.9361 60.6038 40.9361 60.6038H40.9376Z" fill="#005556"/>
<path fill-rule="evenodd" clip-rule="evenodd" d="M100.48 51.2839C96.8674 67.8134 85.5434 73.0302 77.4068 73.0302C62.1711 73.0302 56.3758 59.3329 61.7769 41.1874C66.6283 24.8908 74.9769 20.9939 84.8497 20.9939C95.6098 20.9939 105.293 29.2569 100.48 51.2839ZM81.838 36.5271C79.211 36.5271 76.9442 38.0295 75.6989 44.3633C74.4482 50.7239 74.1858 56.7202 79.6384 56.7202C82.5959 56.7202 85.0357 54.6959 85.9968 48.2814C87.2784 39.7337 85.9609 36.5271 81.8387 36.5271H81.838ZM40.9361 59.0505H55.8219L53.5891 72.2534H19.3516L20.8414 59.0505C20.8414 59.0505 25.674 55.3889 31.2616 51.2839C36.8491 47.179 40.2229 42.8086 41.6818 40.4106C43.1406 38.0126 43.3217 34.974 40.9372 34.974C37.67 34.974 37.2158 40.4106 37.2158 40.4106H23.073C23.073 40.4106 24.4788 31.8185 29.0276 26.4302C33.5765 21.0419 44.9207 19.2256 52.8449 22.5471C57.8362 24.6391 61.4163 34.0052 55.0777 45.0701C50.3501 53.3232 40.9361 59.0505 40.9361 59.0505Z" fill="url(#paint1_linear_51_292)"/>
</g>
<defs>
<linearGradient id="paint0_linear_51_292" x1="149.977" y1="62.1545" x2="149.977" y2="31.8577" gradientUnits="userSpaceOnUse">
<stop stop-color="#DCDCDC"/>
<stop offset="1" stop-color="white"/>
</linearGradient>
<linearGradient id="paint1_linear_51_292" x1="60.5472" y1="73.0322" x2="60.5472" y2="20.87" gradientUnits="userSpaceOnUse">
<stop stop-color="#DEDEDE"/>
<stop offset="1" stop-color="#FCFCFC"/>
</linearGradient>
<clipPath id="clip0_51_292">
<rect width="191" height="94" fill="white"/>
</clipPath>
</defs>
</svg>
