<svg width="26" height="32" viewBox="0 0 26 32" fill="none" xmlns="http://www.w3.org/2000/svg">
<path d="M25.5636 0.395734C25.4636 0.272063 25.3371 0.17234 25.1935 0.103867C25.0499 0.0353943 24.8929 -9.4394e-05 24.7338 1.88561e-07H20.4671C20.227 -1.09142e-05 19.994 0.0809577 19.8057 0.229811C19.6173 0.378664 19.4847 0.586698 19.4292 0.820267L14.2911 22.4H4.4671C4.23544 22.4001 4.01011 22.4756 3.82517 22.6151C3.64023 22.7547 3.50574 22.9506 3.44204 23.1733L1.3087 30.64C1.26331 30.7987 1.25537 30.9658 1.28551 31.1281C1.31566 31.2904 1.38307 31.4435 1.48244 31.5754C1.5818 31.7072 1.71041 31.8142 1.85814 31.8879C2.00587 31.9615 2.16869 31.9999 2.33377 32H18.3338C18.578 32 18.8148 31.9163 19.0046 31.7627C19.1945 31.6091 19.3259 31.3951 19.377 31.1563L25.777 1.2896C25.8103 1.13413 25.8084 0.973173 25.7715 0.818515C25.7346 0.663857 25.6636 0.519407 25.5636 0.395734ZM5.79617 29.8667H3.74817L5.27137 24.5333H7.31937L5.79617 29.8667ZM10.0628 29.8667H8.01484L9.53804 24.5333H11.586L10.0628 29.8667ZM17.4708 29.8667H12.2815L13.8047 24.5333H15.1338C15.3738 24.5333 15.6069 24.4524 15.7952 24.3035C15.9836 24.1547 16.1162 23.9466 16.1716 23.7131L19.0591 11.5851L21.521 10.9696L17.4708 29.8667ZM22.0191 8.64533L19.6138 9.24693L20.0703 7.32693L22.4244 6.7392L22.0191 8.64533ZM22.9204 4.4192L20.625 4.99307L21.3098 2.13333H23.4143L22.9204 4.4192Z" fill="#2E9344"/>
<path d="M11.9335 18.1334V14.9334C11.9335 14.6505 11.8211 14.3792 11.6211 14.1791C11.4211 13.9791 11.1498 13.8667 10.8669 13.8667H1.26686C0.983964 13.8667 0.712654 13.9791 0.512615 14.1791C0.312576 14.3792 0.200195 14.6505 0.200195 14.9334L0.200195 18.1334C0.200195 18.4163 0.312576 18.6876 0.512615 18.8876C0.712654 19.0877 0.983964 19.2 1.26686 19.2H10.8669C11.1498 19.2 11.4211 19.0877 11.6211 18.8876C11.8211 18.6876 11.9335 18.4163 11.9335 18.1334ZM10.3335 17.6H6.06686H1.8002V15.4667H10.3335V17.6Z" fill="#2E9344"/>
</svg>
