<svg width="24" height="24" viewBox="0 0 24 24" fill="none" xmlns="http://www.w3.org/2000/svg">
<path d="M22.4002 1.6H19.2002V0.8C19.2002 0.587827 19.1159 0.384344 18.9659 0.234315C18.8159 0.0842855 18.6124 0 18.4002 0L5.6002 0C5.38803 0 5.18455 0.0842855 5.03452 0.234315C4.88449 0.384344 4.8002 0.587827 4.8002 0.8V1.6H1.6002C1.38803 1.6 1.18455 1.68429 1.03452 1.83431C0.884487 1.98434 0.800201 2.18783 0.800201 2.4L0.800201 8C0.801895 9.48469 1.39244 10.9081 2.44227 11.9579C3.49211 13.0078 4.91551 13.5983 6.4002 13.6H7.2002C7.2767 13.5959 7.35218 13.5805 7.4242 13.5544C8.50028 14.4439 9.81262 15 11.2002 15.1544V16.8H6.4002C6.18803 16.8 5.98455 16.8843 5.83452 17.0343C5.68449 17.1843 5.6002 17.3878 5.6002 17.6V23.2C5.6002 23.4122 5.68449 23.6157 5.83452 23.7657C5.98455 23.9157 6.18803 24 6.4002 24H17.6002C17.8124 24 18.0159 23.9157 18.1659 23.7657C18.3159 23.6157 18.4002 23.4122 18.4002 23.2V17.6C18.4002 17.3878 18.3159 17.1843 18.1659 17.0343C18.0159 16.8843 17.8124 16.8 17.6002 16.8H12.8002V15.1528C14.1878 14.9984 15.5001 14.4423 16.5762 13.5528C16.6481 13.5795 16.7236 13.5954 16.8002 13.6H17.6002C19.0849 13.5983 20.5083 13.0078 21.5581 11.9579C22.608 10.9081 23.1985 9.48469 23.2002 8V2.4C23.2002 2.18783 23.1159 1.98434 22.9659 1.83431C22.8159 1.68429 22.6124 1.6 22.4002 1.6ZM2.4002 8V3.2H4.8002V8C4.79946 9.408 5.2141 10.7849 5.9922 11.9584C5.00993 11.8597 4.09911 11.4004 3.4357 10.6693C2.77229 9.93822 2.40336 8.98721 2.4002 8ZM16.8002 18.4V22.4H7.2002V18.4H16.8002ZM17.6002 8C17.6002 9.48521 17.0102 10.9096 15.96 11.9598C14.9098 13.01 13.4854 13.6 12.0002 13.6C10.515 13.6 9.09061 13.01 8.0404 11.9598C6.9902 10.9096 6.4002 9.48521 6.4002 8V1.6H17.6002V8ZM21.6002 8C21.597 8.98721 21.2281 9.93822 20.5647 10.6693C19.9013 11.4004 18.9905 11.8597 18.0082 11.9584C18.7863 10.7849 19.2009 9.408 19.2002 8V3.2H21.6002V8Z" fill="#F2994A"/>
</svg>
