<svg width="32" height="29" viewBox="0 0 32 29" fill="none" xmlns="http://www.w3.org/2000/svg">
<path d="M23.5296 8.46402H16.8155C17.0218 7.18507 17.7649 6.67383 18.6767 6.06218C19.8327 5.28623 21.2708 4.32063 21.2708 1.64049C21.2708 1.43941 21.1915 1.24657 21.0503 1.10439C20.9091 0.962203 20.7176 0.882324 20.5179 0.882324C20.3182 0.882324 20.1267 0.962203 19.9855 1.10439C19.8443 1.24657 19.7649 1.43941 19.7649 1.64049C19.7649 3.50938 18.9164 4.07938 17.8414 4.80051C16.8036 5.49723 15.5474 6.35775 15.2997 8.46402H8.47082C6.47462 8.46639 4.56085 9.26594 3.14932 10.6873C1.73779 12.1086 0.943758 14.0357 0.941406 16.0457V24.3856C0.942572 25.3906 1.33958 26.3542 2.04535 27.0648C2.75112 27.7755 3.70801 28.1753 4.70611 28.1764C9.01568 28.1764 10.2701 25.8738 11.3774 23.8421C12.3657 22.0282 13.1473 20.5947 16.0002 20.5947C18.8532 20.5947 19.6348 22.0282 20.623 23.8421C21.7304 25.8738 22.9848 28.1764 27.2943 28.1764C28.2925 28.1753 29.2493 27.7755 29.9551 27.0648C30.6609 26.3542 31.0579 25.3906 31.0591 24.3856V16.0457C31.0567 14.0357 30.2627 12.1086 28.8511 10.6873C27.4396 9.26594 25.5258 8.46639 23.5296 8.46402ZM29.5532 24.3856C29.5525 24.9886 29.3143 25.5668 28.8909 25.9932C28.4674 26.4196 27.8932 26.6594 27.2943 26.6601C23.876 26.6601 22.9804 25.0164 21.9436 23.1129C20.9127 21.2219 19.7451 19.0784 16.0002 19.0784C12.2554 19.0784 11.0877 21.2219 10.0569 23.1129C9.02009 25.0164 8.12446 26.6601 4.70611 26.6601C4.10724 26.6594 3.53308 26.4196 3.10961 25.9932C2.68614 25.5668 2.44795 24.9886 2.44729 24.3856V16.0457C2.44911 14.4377 3.08432 12.896 4.21355 11.7589C5.34279 10.6218 6.87384 9.9822 8.47082 9.98036H23.5296C25.1266 9.9822 26.6577 10.6218 27.7869 11.7589C28.9161 12.896 29.5513 14.4377 29.5532 16.0457V24.3856Z" fill="#2E9344"/>
</svg>
