<svg width="32" height="32" viewBox="0 0 32 32" fill="none" xmlns="http://www.w3.org/2000/svg">
<path d="M16 0C12.8355 0 9.74207 0.938384 7.11088 2.69649C4.4797 4.45459 2.42894 6.95345 1.21793 9.87707C0.00693258 12.8007 -0.309921 16.0177 0.307443 19.1214C0.924806 22.2251 2.44866 25.0761 4.6863 27.3137C6.92394 29.5513 9.77487 31.0752 12.8786 31.6926C15.9823 32.3099 19.1993 31.9931 22.1229 30.7821C25.0466 29.5711 27.5454 27.5203 29.3035 24.8891C31.0616 22.2579 32 19.1645 32 16C31.9952 11.758 30.308 7.69113 27.3084 4.69159C24.3089 1.69205 20.242 0.00479944 16 0V0ZM16 2.13333C16.5323 2.13557 17.0641 2.16869 17.5925 2.23253L16 3.82507L14.4075 2.23253C14.936 2.16869 15.4677 2.13557 16 2.13333ZM20.0619 14.7531L18.5344 19.2H13.4656L11.9381 14.7531L16 11.9605L20.0619 14.7531ZM11.9467 2.74027C11.9751 2.79203 12.008 2.84128 12.0448 2.88747L14.9333 5.77493V10.1056L10.4192 13.2085L6.29334 12.5024L4.19841 9.05067C4.16593 9.00886 4.13027 8.96964 4.09174 8.93333C5.85205 5.96684 8.65133 3.75981 11.9467 2.74027ZM3.00801 11.2L4.17174 13.12L2.25174 14.2869C2.38363 13.2322 2.63741 12.1963 3.00801 11.2ZM5.31094 24.8235C3.43528 22.5522 2.33595 19.7401 2.17387 16.7989C2.22547 16.7808 2.27573 16.7591 2.32427 16.7339L5.85067 14.5909L9.86347 15.2779L11.5403 20.16L9.42507 23.9499L5.46987 24.7563C5.41531 24.7747 5.36218 24.7972 5.31094 24.8235ZM7.08374 26.6048L9.28534 26.1557L9.73334 28.3541C8.78629 27.874 7.89731 27.2871 7.08374 26.6048ZM19.9328 29.12C19.928 29.1771 19.928 29.2346 19.9328 29.2917C17.3672 30.0597 14.6328 30.0597 12.0672 29.2917C12.072 29.2346 12.072 29.1771 12.0672 29.12L11.2416 25.0731L13.3333 21.3333H18.6667L20.7552 25.0667L19.9328 29.12ZM22.2667 28.3552L22.7147 26.1568L24.9163 26.6059C24.1026 27.2878 23.2137 27.8744 22.2667 28.3541V28.3552ZM26.6891 24.8245C26.6378 24.7982 26.5847 24.7758 26.5301 24.7573L22.5749 23.9509L20.4597 20.16L22.1365 15.2757L26.1493 14.5888L29.6757 16.7317C29.7243 16.7569 29.7745 16.7787 29.8261 16.7968C29.6645 19.7387 28.5652 22.5516 26.6891 24.8235V24.8245ZM29.7483 14.2827L27.8283 13.1157L28.992 11.1957C29.3625 12.1917 29.6163 13.2272 29.7483 14.2816V14.2827ZM27.8016 9.056L25.7067 12.5024L21.584 13.2085L17.0667 10.1056V5.77493L19.9541 2.88747C19.991 2.84128 20.0238 2.79203 20.0523 2.74027C23.3484 3.75935 26.1485 5.96643 27.9093 8.93333C27.8704 8.96959 27.8344 9.00882 27.8016 9.05067V9.056Z" fill="#2E9344"/>
</svg>
