<svg width="32" height="32" viewBox="0 0 32 32" fill="none" xmlns="http://www.w3.org/2000/svg">
<path d="M30.6028 0.63104C30.0474 0.488211 16.8784 -2.77127 7.05524 7.05406C-2.76796 16.8794 0.488319 30.0484 0.632214 30.6037C0.679832 30.788 0.775923 30.9562 0.910504 31.0907C1.04508 31.2253 1.21325 31.3214 1.39752 31.369C3.3178 31.8074 5.28284 32.0192 7.25243 32C10.5225 32.0611 13.7717 31.4681 16.8094 30.2561C19.8472 29.044 22.6121 27.2372 24.9419 24.9417C34.7704 15.1143 31.5077 1.94847 31.3638 1.39208C31.3159 1.20911 31.2201 1.04219 31.0864 0.90845C30.9527 0.774708 30.7857 0.678962 30.6028 0.63104ZM8.5624 8.56122C11.1687 5.9521 14.4083 4.06494 17.9635 3.08471L22.6854 7.80764L19.072 11.421L17.778 10.1259C17.6797 10.0241 17.5621 9.94294 17.4321 9.88708C17.302 9.83121 17.1622 9.80181 17.0206 9.80058C16.8791 9.79935 16.7387 9.82632 16.6077 9.87991C16.4768 9.93351 16.3577 10.0127 16.2577 10.1127C16.1576 10.2128 16.0784 10.3318 16.0249 10.4628C15.9713 10.5938 15.9443 10.7342 15.9455 10.8757C15.9467 11.0172 15.9762 11.1571 16.032 11.2871C16.0879 11.4172 16.1691 11.5348 16.2709 11.6331L17.5649 12.9271L16.0001 14.4961L14.7094 13.1989C14.6102 13.0996 14.4924 13.0209 14.3628 12.9672C14.2332 12.9134 14.0943 12.8858 13.954 12.8857C13.8137 12.8857 13.6748 12.9132 13.5451 12.9669C13.4155 13.0205 13.2977 13.0992 13.1985 13.1984C13.0992 13.2975 13.0205 13.4153 12.9668 13.5449C12.913 13.6745 12.8853 13.8134 12.8853 13.9537C12.8852 14.094 12.9128 14.2329 12.9665 14.3626C13.0201 14.4922 13.0988 14.61 13.1979 14.7092L14.4962 16L12.9283 17.5658L11.6343 16.2708C11.5353 16.1717 11.4178 16.0932 11.2885 16.0395C11.1592 15.9859 11.0205 15.9583 10.8805 15.9582C10.7405 15.9582 10.6019 15.9857 10.4725 16.0393C10.3432 16.0928 10.2256 16.1713 10.1266 16.2702C10.0276 16.3692 9.94898 16.4867 9.89536 16.616C9.84174 16.7453 9.81411 16.884 9.81406 17.024C9.81396 17.3067 9.92619 17.5779 10.1261 17.7779L11.4211 19.073L7.80775 22.6853L3.08482 17.9623C4.06554 14.4071 5.95305 11.1676 8.5624 8.56122ZM2.55827 29.4376C2.0391 26.4585 2.03081 23.4128 2.53375 20.4309L11.5629 29.4611C8.58169 29.9637 5.53678 29.9557 2.55827 29.4376ZM23.439 23.4388C20.8325 26.0484 17.5925 27.9356 14.0368 28.9154L9.31491 24.1956L12.9283 20.5823L14.2222 21.8763C14.4233 22.0704 14.6925 22.1779 14.972 22.1754C15.2515 22.173 15.5188 22.0609 15.7164 21.8633C15.914 21.6657 16.0261 21.3983 16.0286 21.1188C16.031 20.8394 15.9236 20.5701 15.7294 20.3691L14.4354 19.0751L16.0001 17.5093L17.2952 18.8044C17.4962 18.9985 17.7655 19.106 18.0449 19.1035C18.3244 19.1011 18.5917 18.989 18.7894 18.7914C18.987 18.5938 19.0991 18.3264 19.1015 18.047C19.104 17.7675 18.9965 17.4982 18.8024 17.2972L17.5073 16.0022L19.072 14.4374L20.3671 15.7314C20.5681 15.9256 20.8373 16.033 21.1168 16.0306C21.3963 16.0282 21.6636 15.9161 21.8613 15.7184C22.0589 15.5208 22.171 15.2535 22.1734 14.974C22.1758 14.6945 22.0684 14.4253 21.8742 14.2243L20.5792 12.9303L24.1925 9.31694L28.9155 14.0409C27.9346 17.595 26.0475 20.8333 23.439 23.4388ZM29.4623 11.5702L20.431 2.53897C23.4129 2.03644 26.4585 2.04437 29.4378 2.56242C29.9563 5.54194 29.9646 8.58793 29.4623 11.5702Z" fill="#2E9344"/>
</svg>
