<svg width="32" height="32" viewBox="0 0 32 32" fill="none" xmlns="http://www.w3.org/2000/svg">
<path d="M16 32C19.1645 32 22.2579 31.0616 24.8891 29.3035C27.5203 27.5454 29.5711 25.0466 30.7821 22.1229C31.9931 19.1993 32.3099 15.9823 31.6926 12.8786C31.0752 9.77487 29.5513 6.92394 27.3137 4.6863C25.0761 2.44866 22.2251 0.924806 19.1214 0.307443C16.0177 -0.309921 12.8007 0.00693258 9.87707 1.21793C6.95345 2.42894 4.45459 4.4797 2.69649 7.11088C0.938384 9.74207 0 12.8355 0 16C0.00479944 20.242 1.69205 24.3089 4.69159 27.3084C7.69113 30.308 11.758 31.9952 16 32ZM17.0667 2.18774C20.2007 2.42842 23.1588 3.73153 25.4517 5.88161C22.9051 7.409 20.0301 8.30505 17.0667 8.49494V2.18774ZM17.0667 10.6336C20.565 10.4336 23.9557 9.35107 26.9227 7.48694C28.6002 9.62921 29.6056 12.2203 29.8123 14.9333H17.0667V10.6336ZM17.0667 17.0667H29.8123C29.6056 19.7797 28.6002 22.3708 26.9227 24.5131C23.9557 22.6489 20.565 21.5664 17.0667 21.3664V17.0667ZM17.0667 23.5051C20.0301 23.695 22.9051 24.591 25.4517 26.1184C23.1588 28.2685 20.2007 29.5716 17.0667 29.8123V23.5051ZM14.9333 29.8123C11.7935 29.5718 8.83039 28.2642 6.53653 26.1067C9.08943 24.5875 11.9682 23.7 14.9333 23.5179V29.8123ZM14.9333 2.18561V8.47894C11.9685 8.29783 9.08972 7.41138 6.53653 5.89334C8.83039 3.73583 11.7935 2.42819 14.9333 2.18774V2.18561ZM5.072 7.49334C8.04352 9.34837 11.4357 10.4223 14.9333 10.6155V14.9333H2.18773C2.39438 12.2232 3.39788 9.63462 5.072 7.49334ZM14.9333 17.0667V21.3845C11.4357 21.5777 8.04352 22.6516 5.072 24.5067C3.39788 22.3654 2.39438 19.7769 2.18773 17.0667H14.9333Z" fill="#2E9344"/>
</svg>
